<svg width="3880" height="4657" viewBox="0 0 3880 4657" fill="none" xmlns="http://www.w3.org/2000/svg">
<g clip-path="url(#clip0_322_2)">
<path d="M3880 2174.18C3880 3426.2 2339.02 4433.78 2003.85 4639.2C1964.65 4662.99 1915.35 4662.99 1876.15 4639.2C1540.98 4434.64 0 3426.89 0 2174.18V667.78C0.342363 602.046 53.2375 548.638 118.8 547.782C1317.76 516.627 1041.64 0 1940 0C2838.36 0 2562.24 516.627 3761.03 547.782C3826.42 548.638 3879.14 601.533 3879.83 666.924V2174.18H3880Z" fill="black"/>
<path d="M2721.44 1961.06H2609.66V1572.99C2610.69 1389.48 2542.05 1212.48 2417.94 1077.59C2177.43 814.14 1768.99 795.482 1505.54 1035.99C1490.99 1049.17 1477.13 1063.04 1463.94 1077.59C1338.81 1211.8 1270 1389.14 1272.22 1572.82V1961.23H1158.56C1109.94 1961.57 1070.4 2000.26 1069.2 2048.87V3057.31C1070.57 3105.75 1109.94 3144.61 1158.56 3144.95H2721.44C2769.89 3144.61 2809.43 3105.75 2810.8 3057.31V2048.87C2809.6 2000.26 2770.06 1961.57 2721.44 1961.23V1961.06ZM2297.26 1961.06H1584.11V1566.31C1585.14 1464.8 1625.37 1367.57 1696.41 1295.16C1817.43 1159.93 2025.25 1148.46 2160.48 1269.48C2169.55 1277.53 2178.11 1286.09 2186.16 1295.16C2201.74 1312.11 2215.77 1330.42 2228.1 1349.94C2272.43 1413.62 2296.91 1488.94 2298.8 1566.66L2297.43 1961.06H2297.26Z" fill="white"/>
<path opacity="0.15" d="M1158.9 1960.55H2721.44C2742.67 1960.89 2763.04 1968.59 2778.96 1982.46L1101.38 3122.36C1081.52 3106.26 1069.71 3081.96 1069.54 3056.28V2048.36C1070.57 1999.75 1110.11 1960.72 1158.9 1960.37V1960.55Z" fill="white"/>
<path opacity="0.09" d="M2721.44 1960.55H1158.56C1137.5 1960.89 1117.3 1968.59 1101.38 1982.46L2778.62 3122.36C2798.65 3106.26 2810.46 3081.96 2810.63 3056.28V2048.36C2809.43 1999.75 2769.89 1960.89 2721.27 1960.37L2721.44 1960.55Z" fill="white"/>
</g>
<defs>
<clipPath id="clip0_322_2">
<rect width="3880" height="4657" fill="white"/>
</clipPath>
</defs>
</svg>
