<svg xmlns="http://www.w3.org/2000/svg" xmlns:svgjs="http://svgjs.com/svgjs" xmlns:xlink="http://www.w3.org/1999/xlink" width="288" height="288"><svg xmlns="http://www.w3.org/2000/svg" width="288" height="288" viewBox="0 0 18 18"><defs><linearGradient id="a" x1="9" x2="9" y1="16.795" y2="1.205" gradientUnits="userSpaceOnUse"><stop class="stopColor5e9624 svgShape" offset="0" stop-color="#fff"/><stop class="stopColor639d26 svgShape" offset=".321" stop-color="#fff"/><stop class="stopColor6fb12a svgShape" offset=".794" stop-color="#fff"/><stop class="stopColor76bc2d svgShape" offset=".999" stop-color="#fff"/></linearGradient></defs><path d="M16.083,8.438c0,4.571-5.626,8.25-6.85,9a.449.449,0,0,1-.466,0c-1.224-.747-6.85-4.426-6.85-9v-5.5A.44.44,0,0,1,2.351,2.5C6.728,2.386,5.72.5,9,.5s2.272,1.886,6.649,2a.44.44,0,0,1,.434.435Z" class="colorfff svgShape"/><path fill="url(#a)" d="M15.5,8.485c0,4.191-5.16,7.566-6.282,8.25a.412.412,0,0,1-.428,0C7.664,16.051,2.5,12.676,2.5,8.485V3.441a.4.4,0,0,1,.4-.4C6.916,2.935,5.992,1.205,9,1.205s2.084,1.73,6.1,1.837a.4.4,0,0,1,.4.4Z"/><path d="M11.853,7.66h-.408l0-1.417a2.652,2.652,0,0,0-.7-1.809,2.358,2.358,0,0,0-3.483,0,2.606,2.606,0,0,0-.7,1.808V7.66H6.147a.328.328,0,0,0-.326.32v3.682a.329.329,0,0,0,.326.32h5.706a.329.329,0,0,0,.326-.32V7.98A.328.328,0,0,0,11.853,7.66Zm-1.549,0H7.7V6.219a1.434,1.434,0,0,1,.41-.99,1.2,1.2,0,0,1,1.788,0,1.394,1.394,0,0,1,.153.2h0a1.445,1.445,0,0,1,.258.791Z" class="color000 svgShape"/><path d="M6.148,7.658h5.705a.328.328,0,0,1,.21.08L5.938,11.9a.313.313,0,0,1-.116-.241V7.979A.328.328,0,0,1,6.148,7.658Z" class="colorb3b3b3 svgShape" opacity=".15"/><path d="M11.853,7.658H6.147a.328.328,0,0,0-.209.08L12.062,11.9a.314.314,0,0,0,.117-.241V7.979A.329.329,0,0,0,11.853,7.658Z" class="colora3a3a3 svgShape" opacity=".09"/></svg></svg>